<?xml version="1.0" standalone="no"?>
<!DOCTYPE svg PUBLIC "-//W3C//DTD SVG 20010904//EN"
 "http://www.w3.org/TR/2001/REC-SVG-20010904/DTD/svg10.dtd">
<svg version="1.0" xmlns="http://www.w3.org/2000/svg"
 width="398.000000pt" height="207.000000pt" viewBox="0 0 398.000000 207.000000"
 preserveAspectRatio="xMidYMid meet">

<g transform="translate(0.000000,207.000000) scale(0.100000,-0.100000)"
fill="#000000" stroke="none">
<path d="M1450 1910 c0 -47 4 -80 10 -80 6 0 10 30 10 70 l0 70 75 0 c43 0 75
4 75 10 0 6 -35 10 -85 10 l-85 0 0 -80z"/>
<path d="M2290 1980 c0 -6 32 -10 76 -10 l75 0 -1 -52 c-2 -77 -1 -88 10 -88
6 0 10 33 10 80 l0 80 -85 0 c-50 0 -85 -4 -85 -10z"/>
<path d="M1705 1901 c-80 -20 -167 -102 -198 -187 -22 -64 -32 -167 -19 -221
10 -41 9 -43 -14 -43 -15 0 -24 -6 -24 -15 0 -10 10 -15 28 -15 23 0 30 -6 40
-33 34 -95 154 -214 299 -297 102 -58 157 -64 234 -25 162 82 295 204 344 318
29 66 30 67 67 67 21 0 38 5 38 10 0 6 -16 10 -36 10 l-36 0 6 53 c9 68 -15
184 -49 242 -79 136 -245 182 -379 107 -52 -30 -52 -30 -77 -11 -51 40 -151
57 -224 40z m204 -58 l51 -32 46 32 c40 28 54 32 122 35 68 2 84 -1 132 -25
93 -48 150 -158 150 -289 0 -86 -5 -94 -51 -94 -24 0 -39 -5 -40 -12 -2 -37
-19 40 -30 130 -7 63 -16 102 -23 102 -6 0 -22 -50 -37 -113 l-25 -112 -39 -5
c-37 -5 -39 -7 -51 -53 -7 -27 -14 -51 -17 -53 -2 -2 -9 46 -16 108 -7 62 -14
114 -17 117 -12 12 -24 -24 -44 -139 -13 -69 -26 -131 -30 -139 -10 -19 -11
-13 -50 192 -41 214 -50 216 -74 15 l-7 -57 -37 -3 c-34 -3 -38 -6 -43 -38 -4
-19 -7 -30 -8 -25 -41 203 -68 317 -76 318 -5 0 -25 -56 -44 -126 l-34 -127
-48 0 c-47 0 -48 1 -55 36 -4 20 -4 74 -2 119 8 123 58 206 153 255 32 16 56
20 116 18 65 -3 83 -7 128 -35z m-175 -407 c20 -98 38 -181 41 -184 12 -12 18
12 26 90 4 46 8 84 8 86 1 1 16 2 35 2 34 0 35 1 41 48 4 26 9 54 12 62 3 8
22 -67 41 -167 21 -104 41 -183 47 -183 6 0 21 55 34 123 13 67 27 128 31 136
4 7 10 -14 14 -50 13 -122 18 -150 29 -146 7 2 21 44 32 93 l20 89 40 5 40 5
15 67 c8 37 18 69 21 73 3 3 9 -25 13 -62 16 -154 23 -170 53 -108 12 25 23
35 40 35 13 0 23 -5 23 -10 0 -25 -62 -130 -105 -178 -52 -58 -202 -161 -271
-188 -57 -22 -91 -14 -193 43 -101 57 -207 156 -256 238 l-36 60 53 5 53 5 23
85 c30 108 32 114 37 109 2 -3 20 -85 39 -183z"/>
<path d="M1726 1815 c-74 -26 -134 -105 -151 -197 -8 -45 11 -54 21 -10 23
107 81 173 168 191 33 7 48 31 19 31 -10 -1 -35 -7 -57 -15z"/>
<path d="M1450 1045 l0 -85 85 0 c50 0 85 4 85 10 0 6 -32 10 -75 10 l-75 0 0
75 c0 43 -4 75 -10 75 -6 0 -10 -35 -10 -85z"/>
<path d="M2439 1098 c0 -18 -1 -51 -2 -73 l-2 -40 -73 -3 c-98 -4 -83 -22 19
-22 l79 0 0 85 c0 50 -4 85 -10 85 -5 0 -10 -15 -11 -32z"/>
<path d="M1010 764 c-50 -21 -69 -42 -81 -86 -23 -87 25 -142 156 -178 44 -12
90 -28 103 -36 31 -20 30 -68 -3 -90 -34 -22 -145 -16 -201 12 l-42 20 -16
-33 -16 -33 43 -22 c45 -23 167 -36 230 -24 19 3 51 21 72 39 32 28 38 40 43
85 4 48 2 54 -29 85 -25 25 -56 41 -109 57 -113 33 -144 51 -148 81 -7 60 105
91 195 54 45 -19 50 -19 56 3 2 9 8 24 11 33 18 42 -185 67 -264 33z"/>
<path d="M1534 758 c-3 -12 -51 -120 -105 -241 -55 -120 -99 -221 -99 -223 0
-2 20 -4 44 -4 44 0 44 0 67 55 l23 55 127 0 127 0 22 -55 22 -55 49 0 c44 0
48 2 39 18 -12 21 -66 139 -150 330 l-63 142 -48 0 c-40 0 -49 -3 -55 -22z
m104 -177 c23 -55 42 -102 42 -105 0 -3 -41 -6 -91 -6 -83 0 -91 2 -85 18 23
62 81 192 86 192 4 0 25 -45 48 -99z"/>
<path d="M1920 535 l0 -247 148 4 c162 4 216 19 268 75 86 93 85 246 -2 337
-53 56 -104 70 -266 74 l-148 4 0 -247z m304 150 c53 -25 79 -68 84 -136 5
-64 -18 -118 -63 -152 -30 -22 -102 -36 -175 -34 l-55 2 -3 160 c-1 87 0 165
2 172 8 19 163 10 210 -12z"/>
<path d="M2500 535 l0 -245 45 0 44 0 3 157 3 156 76 -124 c102 -168 101 -168
200 0 l76 130 7 -106 c3 -58 6 -130 6 -160 l0 -53 40 0 40 0 0 245 0 245 -38
0 -37 0 -95 -160 c-52 -88 -97 -160 -100 -160 -3 0 -47 72 -99 160 l-94 160
-38 0 -39 0 0 -245z"/>
<path d="M108 143 c7 -3 16 -2 19 1 4 3 -2 6 -13 5 -11 0 -14 -3 -6 -6z"/>
<path d="M1521 134 c0 -11 3 -14 6 -6 3 7 2 16 -1 19 -3 4 -6 -2 -5 -13z"/>
<path d="M2279 133 c-1 -10 0 -26 0 -36 3 -26 -29 -34 -45 -12 -8 10 -14 15
-14 9 1 -21 18 -34 43 -32 25 2 27 6 27 45 0 41 -9 61 -11 26z"/>
<path d="M81 124 c0 -11 3 -14 6 -6 3 7 2 16 -1 19 -3 4 -6 -2 -5 -13z"/>
<path d="M288 133 c-2 -5 -1 -24 3 -43 l6 -35 2 43 c1 39 -3 52 -11 35z"/>
<path d="M3603 100 c0 -25 2 -35 4 -22 2 12 2 32 0 45 -2 12 -4 2 -4 -23z"/>
<path d="M359 98 c4 -17 12 -33 19 -34 7 -1 8 0 2 3 -5 2 -10 18 -10 34 0 16
-4 29 -9 29 -5 0 -6 -14 -2 -32z"/>
<path d="M3328 117 c6 -7 12 -23 14 -37 3 -23 4 -22 9 7 4 25 2 33 -13 37 -14
3 -16 1 -10 -7z"/>
<path d="M3378 118 c5 -7 12 -24 15 -38 4 -22 4 -21 6 6 1 21 -5 34 -15 38
-13 5 -14 3 -6 -6z"/>
<path d="M184 105 c-4 -8 -1 -22 6 -30 13 -16 50 -21 50 -7 0 5 -10 8 -22 8
-18 -1 -23 4 -22 22 1 26 -4 28 -12 7z"/>
<path d="M465 109 c-4 -6 -4 -13 -1 -16 3 -4 6 -1 6 6 0 7 5 9 12 5 7 -4 8 -3
4 4 -9 15 -13 15 -21 1z"/>
<path d="M606 93 c7 -37 14 -42 14 -10 0 14 -4 28 -9 32 -6 3 -8 -6 -5 -22z"/>
<path d="M670 109 c0 -5 5 -7 10 -4 6 3 10 8 10 11 0 2 -4 4 -10 4 -5 0 -10
-5 -10 -11z"/>
<path d="M734 105 c-8 -21 14 -45 40 -44 19 1 18 2 -4 8 -17 5 -25 14 -24 29
1 26 -4 28 -12 7z"/>
<path d="M1004 105 c-3 -8 -4 -20 -2 -27 3 -7 7 -1 10 15 6 29 1 36 -8 12z"/>
<path d="M1046 107 c3 -10 9 -15 12 -12 3 3 0 11 -7 18 -10 9 -11 8 -5 -6z"/>
<path d="M1192 105 c-7 -8 -8 -15 -3 -15 5 0 12 -8 14 -17 3 -10 5 -3 6 15 1
36 1 37 -17 17z"/>
<path d="M1312 90 c0 -19 2 -27 5 -17 2 9 2 25 0 35 -3 9 -5 1 -5 -18z"/>
<path d="M1378 108 c9 -9 9 -15 -1 -27 -10 -12 -9 -13 1 -7 7 4 20 2 30 -6 10
-8 8 -1 -7 20 -12 17 -25 32 -29 32 -3 0 -1 -5 6 -12z"/>
<path d="M1462 90 c0 -19 2 -27 5 -17 2 9 2 25 0 35 -3 9 -5 1 -5 -18z"/>
<path d="M1791 78 c1 -24 3 -36 6 -27 3 11 12 15 26 13 20 -4 20 -4 -2 6 -17
7 -22 16 -18 30 3 11 1 20 -4 20 -5 0 -8 -19 -8 -42z"/>
<path d="M1847 99 c4 -13 8 -18 11 -10 2 7 -1 18 -6 23 -8 8 -9 4 -5 -13z"/>
<path d="M1932 105 c-7 -8 -8 -15 -3 -15 5 0 12 -8 14 -17 3 -10 5 -3 6 15 1
36 1 37 -17 17z"/>
<path d="M2000 90 c0 -16 2 -30 4 -30 2 0 6 13 8 30 3 16 1 30 -4 30 -4 0 -8
-13 -8 -30z"/>
<path d="M2600 100 c0 -11 2 -20 4 -20 2 0 6 9 9 20 3 11 1 20 -4 20 -5 0 -9
-9 -9 -20z"/>
<path d="M2714 105 c-3 -8 -4 -20 -2 -27 3 -7 7 -1 10 15 6 29 1 36 -8 12z"/>
<path d="M3033 105 c-3 -9 -3 -18 -1 -21 3 -3 8 4 11 16 6 23 -1 27 -10 5z"/>
<path d="M3178 94 c4 -25 3 -26 -22 -22 -18 4 -24 2 -18 -4 15 -15 46 -5 50
16 2 10 0 22 -6 28 -6 6 -8 0 -4 -18z"/>
<path d="M3290 90 c0 -16 2 -30 4 -30 2 0 6 13 8 30 3 16 1 30 -4 30 -4 0 -8
-13 -8 -30z"/>
<path d="M3662 90 c0 -19 2 -27 5 -17 2 9 2 25 0 35 -3 9 -5 1 -5 -18z"/>
<path d="M1522 85 c0 -16 2 -22 5 -12 2 9 2 23 0 30 -3 6 -5 -1 -5 -18z"/>
<path d="M2817 99 c7 -7 15 -10 18 -7 3 3 -2 9 -12 12 -14 6 -15 5 -6 -5z"/>
<path d="M2098 93 c7 -3 16 -2 19 1 4 3 -2 6 -13 5 -11 0 -14 -3 -6 -6z"/>
<path d="M3710 94 c0 -17 27 -37 42 -31 8 4 7 6 -4 6 -9 1 -22 9 -27 19 -6 9
-11 12 -11 6z"/>
<path d="M560 81 c0 -6 4 -13 10 -16 6 -3 7 1 4 9 -7 18 -14 21 -14 7z"/>
<path d="M893 80 c5 -18 35 -26 50 -11 7 7 3 8 -13 4 -13 -4 -26 0 -32 8 -8
12 -9 11 -5 -1z"/>
<path d="M1263 80 c2 -8 12 -16 23 -17 13 -2 15 -1 4 4 -8 3 -19 11 -23 17 -6
7 -7 6 -4 -4z"/>
<path d="M1680 82 c0 -7 -12 -13 -27 -13 -26 -2 -26 -2 -4 -6 24 -5 50 11 38
24 -4 3 -7 1 -7 -5z"/>
<path d="M2070 81 c0 -6 4 -13 10 -16 6 -3 7 1 4 9 -7 18 -14 21 -14 7z"/>
<path d="M2390 81 c0 -6 4 -13 10 -16 6 -3 7 1 4 9 -7 18 -14 21 -14 7z"/>
<path d="M2850 81 c0 -5 -10 -12 -22 -14 -20 -4 -19 -4 5 -6 18 -1 27 4 27 14
0 8 -2 15 -5 15 -3 0 -5 -4 -5 -9z"/>
<path d="M2981 74 c0 -11 3 -14 6 -6 3 7 2 16 -1 19 -3 4 -6 -2 -5 -13z"/>
<path d="M110 70 c-23 -7 -23 -8 -3 -9 12 -1 25 4 28 9 3 6 5 10 3 9 -2 -1
-14 -5 -28 -9z"/>
<path d="M2425 70 c-3 -5 -1 -10 4 -10 6 0 11 5 11 10 0 6 -2 10 -4 10 -3 0
-8 -4 -11 -10z"/>
<path d="M3458 68 c5 -5 16 -8 23 -6 8 3 3 7 -10 11 -17 4 -21 3 -13 -5z"/>
<path d="M3818 68 c5 -5 16 -8 23 -6 8 3 3 7 -10 11 -17 4 -21 3 -13 -5z"/>
<path d="M1028 63 c7 -3 16 -2 19 1 4 3 -2 6 -13 5 -11 0 -14 -3 -6 -6z"/>
<path d="M2918 63 c7 -3 16 -2 19 1 4 3 -2 6 -13 5 -11 0 -14 -3 -6 -6z"/>
<path d="M2535 50 c-3 -5 -1 -10 4 -10 6 0 11 5 11 10 0 6 -2 10 -4 10 -3 0
-8 -4 -11 -10z"/>
</g>
</svg>
